<svg xmlns="http://www.w3.org/2000/svg" viewBox="0 0 1368 408" height="408" width="1368"><path d="M882.59 269.305c-35.48.0-64.262-28.775-64.262-64.264.0-35.49 28.782-64.257 64.263-64.257 35.5.0 64.27 28.767 64.27 64.258.0 35.49-28.77 64.265-64.27 64.265zm0-173.534c-60.34.0-109.27 48.93-109.27 109.27.0 60.356 48.93 109.275 109.27 109.275 60.355.0 109.283-48.92 109.283-109.274.0-60.34-48.928-109.27-109.282-109.27M1124.726 148.2c-31.19.0-56.47 25.286-56.47 56.47l.01 103.507h-46.777v-206.26h46.775v31.804s19.91-31.802 60.916-31.802h14.323v46.28h-18.777M650.43 101.918l35.362 142.758 38.976-142.758h46.455L711.29 308.172h-46.455l-36.696-143.55-36.694 143.55h-46.46l-59.928-206.254h46.458l38.97 142.758 35.365-142.758h44.58m631.21 95.127c33.246-18.75 55.755-54.36 55.755-95.146h-46.8c0 34.378-27.963 62.34-62.345 62.34h-6.267V2.41h-46.787v305.767h46.787v-97.142h5.57c4.58.0 10.532 3.02 13.233 6.7l66.393 90.442h56.07l-81.61-111.132" fill="#fff"/><path d="M373.827 259.133c-22.152.0-42.883-9.38-61.75-24.63l4.59-21.594.167-.838c4.136-22.933 17.033-61.406 56.993-61.406 29.91.0 54.235 24.33 54.235 54.238.0 29.902-24.326 54.23-54.235 54.23zm0-163.362c-50.975.0-90.52 33.084-106.557 87.624-24.498-36.81-43.122-81.025-53.938-118.25h-54.898V207.9c0 28.17-22.928 51.09-51.108 51.09-28.173.0-51.097-22.92-51.097-51.09V65.145H1.33V207.9c0 58.44 47.552 106.415 105.996 106.415 58.45.0 106.006-47.976 106.006-106.415V184c10.636 22.2 23.723 44.71 39.622 64.62l-33.582 157.99h56.122l24.358-114.59c21.324 13.63 45.852 22.295 73.975 22.295 60.18.0 109.137-49.24 109.137-109.41.0-60.177-48.958-109.134-109.137-109.134" fill="#6fda44"/></svg>